<svg xmlns="http://www.w3.org/2000/svg" viewBox="0 0 24 24"><path fill="#2496ED" d="M13.983 11.078h2.119a.186.186 0 00.186-.185V9.006a.186.186 0 00-.186-.186h-2.119a.185.185 0 00-.185.185v1.888c0 .102.083.185.185.185m-2.954-5.43h2.119a.186.186 0 00.186-.186V3.574a.186.186 0 00-.186-.185h-2.119a.185.185 0 00-.185.185v1.888c0 .102.083.186.185.186m-2.955 5.43h2.119a.186.186 0 00.186-.185V9.006a.186.186 0 00-.186-.186H8.074a.185.185 0 00-.185.185v1.888c0 .102.083.185.185.185m-2.954 5.43h2.119a.186.186 0 00.186-.185V9.006a.186.186 0 00-.186-.186H5.12a.185.185 0 00-.185.185v1.888c0 .102.083.185.185.185m-2.955 0h2.119a.186.186 0 00.186-.185V9.006a.186.186 0 00-.186-.186H2.165a.185.185 0 00-.185.185v1.888c0 .102.083.185.185.185M4.73 6.509h2.118a.186.186 0 00.186-.186V4.435a.186.186 0 00-.186-.185H4.73a.185.185 0 00-.185.185v1.888c0 .102.083.186.185.186m2.955 0h2.119a.186.186 0 00.186-.186V4.435a.186.186 0 00-.186-.185H7.685a.185.185 0 00-.185.185v1.888c0 .102.083.186.185.186m2.954 0h2.119a.186.186 0 00.186-.186V4.435a.186.186 0 00-.186-.185h-2.119a.185.185 0 00-.185.185v1.888c0 .102.083.186.185.186m11.862 6.608c-.24-1.203-.79-2.267-1.518-3.138a9.82 9.82 0 00-1.518-1.354l-.059-.045c-2.27-1.687-5.323-1.687-7.593 0l-.059.045a9.9 9.9 0 00-1.518 1.354c-.728.871-1.278 1.935-1.518 3.138a9.82 9.82 0 00-.059 1.573h13.899c0-.536-.02-1.059-.059-1.573"/></svg>